<svg xmlns="http://www.w3.org/2000/svg" width="180" height="180" viewBox="0 0 180 180">
<!-- SVG created with Arrow, by QuiverAI (https://quiver.ai) -->
  <path d="m153.6 45.13-39.67-39.67c-0.31-0.3-0.73-0.46-1.11-0.46h-78.4c-5.49 0-9.25 4.51-9.25 8.61v152.4c0 5.13 4.07 8.97 9.11 8.96h110.3c5.45 0 9.15-4.49 9.15-8.61v-120.1c0-0.44-0.1-0.81-0.17-1.13zm-39.32-35.33 34.49 34.49h-28.8c-3.62 0-5.69-3.32-5.69-6.01v-28.48zm36.47 156.6c0 3.36-2.75 5.92-6.13 5.92h-110.2c-3.66 0-6.23-3.09-6.23-6.27v-37.03l33.18-28.02c2.31-2 4.72-1.88 6.5-0.13l27.57 26.62c3.5 3.38 6.93 1.7 8.74 0.07l18.47-15.99c2.17-1.95 4.13-1.55 5.76-0.22l22.34 17.9v37.15zm0-40.61-21.13-16.8c-3.05-2.5-6.39-1.99-8.95 0.36l-17.72 16.15c-2.04 1.92-4.01 1.36-5.38 0l-28.08-26.68c-3.1-2.73-7.09-2.49-9.95 0.12l-31.35 26.94v-112.3c0-3.65 2.83-5.92 6.23-5.92h76.84v30.59c0 5.19 4.14 8.88 8.49 8.88h31v78.62z" fill="#010202"/>
  <path d="m104.7 64.66c-6.91 0-11.75 6.32-11.75 11.65 0 6.71 5.06 11 11.64 11 6.9 0 11.13-5.97 11.13-11.33 0-6.19-5.17-11.32-11.02-11.32zm-0.11 19.73c-4.9 0-8.3-3.48-8.3-8.16 0-4.77 3.6-8.46 8.41-8.46 4.79 0 7.87 4.25 7.87 8.29 0 4.58-3.31 8.33-7.98 8.33z" fill="#010202"/>
</svg>
