<svg xmlns="http://www.w3.org/2000/svg" width="256" height="256" viewBox="0 0 256 256">
<!-- SVG created with Arrow, by QuiverAI (https://quiver.ai) -->
  <path d="m232 6.38v246.2l-206.8-0.14-0.1-232 11.85-14.23 195.1 0.15z" fill="none"/>
  <path d="m232 250.1v2.44l-206.8-0.14v-2.3h206.8z" fill="none"/>
  <path d="m232 218.9v14.94h-2.26v-14.94h2.26z" fill="none"/>
  <path d="m232 188.6v14.94h-2.26v-14.94h2.26z" fill="none"/>
  <path d="m232 158.3v14.94h-2.26v-14.94h2.26z" fill="none"/>
  <path d="m232 128v14.94h-2.26v-14.94h2.26z" fill="none"/>
  <path d="m232 97.64v14.94h-2.26v-14.94h2.26z" fill="none"/>
  <path d="m232 67.32v14.94h-2.26v-14.94h2.26z" fill="none"/>
  <path d="m232 37v14.94h-2.26v-14.94h2.26z" fill="none"/>
  <path d="m232 3.84v14.94h-2.26v-14.94h2.26z" fill="none"/>
  <path d="m25.11 232.8v14.94h-2.26v-14.94h2.26z" fill="none"/>
  <path d="m25.11 172.1v14.94h-2.26v-14.94h2.26z" fill="none"/>
  <path d="m25.11 141.8v14.94h-2.26v-14.94h2.26z" fill="none"/>
  <path d="m25.11 111.5v14.94h-2.26v-14.94h2.26z" fill="none"/>
  <path d="m25.11 81.18v14.94h-2.26v-14.94h2.26z" fill="none"/>
  <path d="m25.11 50.86v14.94h-2.26v-14.94h2.26z" fill="none"/>
  <path d="m25.11 20.54v14.94h-2.26v-14.94h2.26z" fill="none"/>
  <path d="m222 218.9h-189v0.42h189v-0.42z" fill="currentColor" opacity="0.2"/>
  <path d="m222 188h-189v0.42h189v-0.42z" fill="currentColor" opacity="0.2"/>
  <path d="m222 157.5h-189v0.42h189v-0.42z" fill="currentColor" opacity="0.2"/>
  <path d="m222 127h-189v0.42h189v-0.42z" fill="currentColor" opacity="0.2"/>
  <path d="m222 96.46h-189v0.42h189v-0.42z" fill="currentColor" opacity="0.2"/>
  <path d="m222 65.95h-189v0.42h189v-0.42z" fill="currentColor" opacity="0.2"/>
  <path d="m222 35.44h-189v0.42h189v-0.42z" fill="currentColor" opacity="0.2"/>
  <path d="m225.4 61.11c0-0.82-0.24-1.63-0.9-2.31l-51.93-51.7c-0.78-0.78-1.8-1.41-2.86-1.41h-121.1c-10.19 0-18.61 8.96-18.61 18.78v206.5c0 10.98 8.43 18.3 18.78 18.3h157.1c10.86 0 19.07-8.53 19.17-18.4l0.37-169.8zm-52.83-47.18 44.86 45.06h-31.55c-8.24 0-13.31-6.92-13.31-13.98v-31.08zm47.5 216.9c0 8.23-6.92 14.1-14.21 14.1h-156.2c-8.6 0-14.77-6.1-14.77-14.3v-206.1c0-8.23 6.46-13.84 13.65-13.84h119.7v34.88c0 10.98 7.79 18.85 18.14 18.85h33.85l-0.19 166.4z" fill="currentColor"/>
  <path d="m187.7 126.1h-119.6c-2.05 0-2.41 1.65-2.41 2.64 0 1.48 1.07 2.28 2.41 2.28h119.6c1.88 0 2.01-1.64 2.01-2.47 0-1.31-0.84-2.45-2.01-2.45z" fill="currentColor"/>
  <path d="m187.3 158.3h-119.6c-1.52 0-1.96 1.65-1.96 2.6 0 1.57 1.34 2.66 2.41 2.66h119.6c1.4 0 2.01-1.41 2.01-2.59 0-1.41-1.06-2.67-2.46-2.67z" fill="currentColor"/>
  <path d="m156.3 190.5h-88.58c-1.34 0-2.05 1.25-2.05 2.38 0 1.29 0.91 2.54 2.21 2.54h88.14c1.68 0 2.29-1.25 2.29-2.54 0-1.28-0.94-2.38-2.01-2.38z" fill="currentColor"/>
  <path d="m114.3 56.75c-0.56-1.49-3.16-2.96-4.19-2.96h-0.3c-1.38 0-2.02 0.89-2.96 2.32-5.6 8.49-10.73 16.1-15.49 22.98-1.33-2.01-3.5-9.02-7.38-20.88-0.7-2.14-1.87-3.2-3.91-3.2-2.49 0-4.25 0.48-5.02 2.38-0.65 9.24-3.25 19.6-6.28 31.11-0.37 1.41-0.44 2.73-0.44 4 0 2.85 1.12 4.51 3.27 4.51h0.46c1.73 0 2.9-1.55 3.21-4.56 1.01-7.74 3.13-13.76 4.71-22.36 2.8 5.98 4.72 11.29 6.83 15.02 0.86 1.6 2 1.67 3.16 1.67 2.1 0 3.83-1.59 5.8-4.15 4.47-5.76 7.93-11.17 12.23-16.9-0.56 9.18-2.29 17.13-2.29 25.86 0 3.08 1.06 4.83 3.33 4.83h0.2c1.94 0 3.37-1.66 3.37-3.47 0-0.64-0.3-2.12-0.67-4.24-0.19-10.62 1.97-20.72 3.14-31.86l-0.78-0.1z" fill="currentColor"/>
</svg>
