<svg xmlns="http://www.w3.org/2000/svg" width="200" height="200" viewBox="0 0 200 200">
<!-- SVG created with Arrow, by QuiverAI (https://quiver.ai) -->
  <path d="m174 41.19-34.51-34.55c-1.19-1.18-2.14-1.48-3.93-1.48l-96.72 0.25c-9.16 0-14.98 6.84-14.98 15.65v27.97l0.51 22.8v74.25l-0.58 31.53c0 10.18 5.75 17.64 15.54 17.64l121.3-0.16c8.77 0 14.09-7.91 14.09-16.15v-47.53c0-20.88 0.16-40.8 0.41-61.24 0.15-8.51 0.05-17.38-0.66-27.55-0.07-0.61-0.17-1.01-0.48-1.43zm-34.67-29.37 28.56 28.76 0.2 0.21-19.32-0.08c-5.63 0-9.49-2.5-9.49-10l0.05-18.89zm31.29 166.9c0 6.99-4.85 12.25-10.18 12.25l-120.5 0.66c-7.01 0-11.89-5-11.89-13.71l-0.05-28.02 0.2-78.12 0.11-21.48-0.16-29.19c0-7.3 4.27-12.36 11.84-12.36l94.94 0.2v21.76c0 9.16 5.22 14.62 15.01 14.62l20.83-0.61 0.21 0.15-0.36 25.25v108.6z" fill="#070907"/>
  <path d="m87.24 52.22h-0.86c-12.04 0-19.4 7.2-19.4 21.42v6.15c0 9.62-1.54 13.99-7.99 15.05-2.98 0.51-3.98 2.72-3.98 5.86 0 3.13 0.85 5.88 3.78 6.08 6.3 0.51 7.93 4.97 7.93 14.03v4.47c0 13.55 5 22.51 20.01 22.51h0.61c3.72 0 5.03-2.45 5.03-6.04 0-3.03-1.06-5.73-3.99-5.93-6.6-0.51-7.36-3.7-7.36-13.83v-2.8c0-8.05-1.83-15.25-7.6-19.04 5.57-3.34 7.3-11.44 7.3-17.35v-2.7c0-10.03 0.1-14.07 6.55-15.08 3.79-0.51 4.85-2.7 4.85-6.29 0-3.54-1.11-6.51-4.88-6.51zm0 9.2c-9.52 1.06-9.57 8.05-9.57 18.38v2.14c0 7.7-2.78 15.6-8.83 17.7-0.76 0.31-0.91 1.57-0.1 1.98 7.16 3.54 8.84 10.08 8.84 19.24v4.04c0 8.25 2.38 13.51 10 13.97 1.16 0.05 1.26 0.61 1.26 2.65 0 2.8-0.46 3.31-1.82 3.31h-0.61c-11.83 0-16.37-6.89-16.37-19.56v-4.47c0-9.77-1.4-15.88-9.93-17.19-1.26-0.2-1.26-1.67-1.26-3.26 0-2.25 0.21-2.81 1.11-2.86 8.83-1.26 10.19-8.76 10.19-18.48v-2.6c0-12.05 3.93-20.45 16.52-21.01h0.61c1.21 0 1.56 0.81 1.56 3.21 0 1.94-0.41 2.65-1.6 2.81z" fill="#070907"/>
  <path d="m139.9 94.38c-6.45-1.06-7.51-6.52-7.51-15.28v-2.7c0-13.97-5.17-24.2-19.72-24.2h-0.66c-4.34 0-5.6 2.25-5.9 6.52-0.21 3.59 1.37 5.99 4.84 6.3 6.45 0.61 7.06 3.95 6.76 13.88v1.73c0 7.9 1.36 15.5 7.71 19.39-6.4 3.79-7.16 12.34-7.16 20.59v2.3c0 8-0.91 12.37-6.81 13.13-4.38 0.51-5.04 2.24-5.04 6.23 0 4.09 1.46 5.72 5.29 5.51 13.74-0.71 20.79-7.85 20.79-22.8v-5.65c0-7.1 1.16-11.87 7.61-13.08 3.23-0.66 3.99-2.8 3.99-6.64-0.01-2.8-1.01-4.84-4.19-5.23zm-0.55 8.73c-8.83 1.26-9.84 7.31-9.84 16.07v4.37c0 14.18-5.07 20.77-17 21.28h-0.66c-1.52 0-1.77-0.51-1.77-3.11 0-1.94 0.1-2.55 1.41-2.7 8.48-0.81 9.79-6.41 9.79-15.57v-3.24c0-9.06 2.13-15.5 9.6-19.04 0.76-0.41 0.71-1.72-0.15-2.08-6.86-3.04-9.44-9.68-9.44-18.99v-3.99c0-8-1.98-13.41-9.65-14.07-1.93-0.15-1.67-1.36-1.67-3.24 0-2.45 0.45-3.06 1.62-3.06h1c11.33 0.61 16.55 7.2 16.55 20.27v5.41c0 8.86 2.23 15.66 10.4 16.52 1.06 0.1 1.26 0.71 1.26 2.65 0 1.54-0.2 2.35-1.45 2.52z" fill="#070907"/>
</svg>
