<svg xmlns="http://www.w3.org/2000/svg" width="200" height="200" viewBox="0 0 200 200">
<!-- SVG created with Arrow, by QuiverAI (https://quiver.ai) -->
  <path d="m172.5 47c-0.69-1.47-12.55-14.11-18.92-20.87-5.84-6.25-20.83-20.06-21.89-20.72-0.45-0.45-0.94-0.6-1.65-0.59-5.91 0.02-15.32-0.22-22.28-0.28-20.05-0.21-36.99-0.03-55.64 0.47l-9.22-0.1c-9.63-0.1-15.39 6.62-15.39 15.13 0 11.21-0.39 32.4-0.47 45.18-0.24 12.83-0.22 33.11 0 53.87 0.42 13.58 0.63 28.48 0.8 44.92 0 3.9-0.27 9.08-0.27 14.95 0 9.48 4.9 16.35 16.17 16.35l113.6-0.7c8.79 0 14.61-7.34 14.54-14.14-0.02-1.65-2.54-1.96-2.53-0.14 0.04 7.38-4.77 12.46-12.2 12.33l-112.3 0.33c-9.76 0.46-15.17-3.33-15.17-14.01 0-3.81 0.16-8.3 0.07-13.79-0.24-12.23-0.6-32.73-0.76-44.91-0.24-18.67-0.07-41.04 0.29-55.93l0.56-44.33c0.12-8.18 4.8-12.99 13.3-12.99l8.93 0.06c19.72-0.48 41.74-0.84 61.04-0.47l16.71 0.3c-1.22 4.26-1.01 16.13-1.13 22.15-0.13 7.65 0.79 14 5.22 17.38 4.37 3.34 11.75 2.92 19.15 2.77 6.19-0.14 11.94-0.61 17.25-0.38 1.23 16.37 0.95 33.33 0.55 51.93-0.62 20.14-0.78 45.56-0.72 72.75 0 1.9 2.24 1.81 2.2 0.2-0.02-22.28 0.28-45.91 0.68-69.01 0.35-14.43 0.62-35-0.52-57.71zm-19.09-0.58c-8.25 0.29-15.3 0.62-18.34-1.69-4.63-2.67-4.97-9.57-4.08-28.76 0.08-2.56 0.25-5.22 0.7-7.75 7.05 6.31 19.29 18.47 25.46 25.42 4.13 4.57 8.89 9.6 12.29 13.1-4.25 0-10.53-0.38-16.03-0.32z" fill="#000"/>
  <path d="m86.97 69.02c-1.29-0.66-1.76 0.84-0.9 1.74 2.79 2.63 2.15 3.66 0.29 5.96-3.49 4.06-12.72 13.91-20.61 21.8-2.05 2.05-2.34 3.9-0.78 5.37 7.96 7.75 13.82 15.3 22.83 22.91 2.3 2.08 0.19 4.28-2.25 5.94-0.84 0.56-1.79 0.04-3.15-1.27-8.26-6.97-14.63-13.56-23.64-23.29-3.74-3.89-5.32-5.22-3.35-8.52 2.89-3.51 18.36-19.68 27.13-28.84 0.93-0.98-0.34-2.27-1.3-1.5-8.29 8.29-19.13 19.43-27.28 28-2.73 3.19-2.55 5.94-0.25 8.36 9.48 10.15 16.8 18.58 27.94 27.54 2.16 1.66 3.91 1.25 5.94-0.58 2.96-2.67 3.32-4.83 1.19-6.84-8.37-8.06-13.09-14.32-21.95-24.07-0.71-0.79 3.42-3.81 5.28-5.85 5.85-5.97 10.78-11.08 16.38-17.34 3.16-3.45 2.22-7.11-1.52-9.52z" fill="#000"/>
  <path d="m116.9 68.92c-2.46-2.13-4.73-0.56-6.92 1.95-1.76 2.04-2.18 4.32-0.4 5.9 6.1 6.59 15.01 16.6 22.53 24.13 1.39 1.4 0 2.08-3.36 5.63-6.27 6.14-12.09 12.53-18.43 19.25-2.86 2.97-2.03 6.31 1.08 8.13 1.01 0.57 2.48-1.04 1.01-2.2-1.9-1.42-1.58-3.6 0.72-6.01 7.01-7.59 12.98-13.64 20.4-21.29 2.3-2.3 2.45-3.53 0.75-5.57-7.4-8.72-15.22-17.39-22.27-24.68-1.31-1.37 0.64-3.02 2.57-4.22 0.75-0.36 2.48 1.55 3.5 2.49 9.68 8.27 17.21 16.86 26.82 26.41 1.78 1.9 0.62 3.81-1.23 5.71-8.74 9.4-16.79 18.2-26.59 27.66-1.08 1.08 0.18 2.48 1.51 1.08 9.01-8.57 16.85-17.22 27.06-28.22 2.34-2.59 2.04-5.66 0-7.61-8.86-9.11-18.62-20.34-28.75-28.54z" fill="#000"/>
</svg>
