<svg xmlns="http://www.w3.org/2000/svg" width="256" height="256" fill="none" viewBox="0 0 256 256">
<!-- SVG created with Arrow, by QuiverAI (https://quiver.ai) -->
  <path d="m223.3 66.49c0-0.78-0.36-1.54-0.88-2.13-8.85-10.07-17.51-20.48-27.67-30.03-8.96-8.54-18.3-15.92-27.5-25.1-0.75-0.75-1.62-1.08-2.59-1.14-0.31-0.26-0.71-0.39-1.17-0.41-14.9-0.6-29.86-0.9-44.78-0.76-21.49 0.22-42.97 0.65-64.45 1.24-14.18 0.41-21.92 4.65-22.35 20.73-0.37 12.87-0.16 25.79-0.42 38.67-0.55 28.14-0.84 56.2-0.49 84.35 0.37 25.67 1.34 51.33 1.55 76.97 0.14 13.09 5.29 18.93 18.07 19.11 10.24 0.52 20.53 0.85 30.84 0.84 20.78-0.03 41.56-0.22 62.33-0.82 19.95-0.6 39.93-0.67 59.9-0.97 11.46-0.18 18.98-6.38 19.41-19.31 1.62-47.93 0.9-93.88 0.2-139.7-0.09-7.17 0.01-14.34 0-21.52zm-56.57-52.62c17.14 16.1 33.28 30.56 49.98 50.48-8.69-1.58-17.26-0.59-25.76-0.4-13.38 0.32-23.22 0.01-24.04-14.55-0.59-10.6-0.31-22.49-0.18-35.53zm52.21 212.4c-0.36 11.47-5.3 16.58-16.12 16.57-22.98 0.22-45.98 0.42-68.94 1.04-25.36 0.73-50.81 1.24-76.15-0.18-12.92-0.22-20.86-1.47-21.09-16.63-0.24-16.92-0.89-33.82-1.3-50.74-0.54-21.53-0.66-39.33-0.3-62 0.48-25.66 0.78-51.23 1-76.89 0.14-15.06 0.2-24.63 17.21-25.57 12.22-0.35 24.45-0.42 36.67-0.85 15.86-0.6 31.78-0.67 47.68-0.38 8.53 0.26 17.05 0.82 25.15 1.08-0.04 11.22-0.07 24.91 0.46 36.88 0.65 14.8 6.93 19.94 21.9 19.55 11.28-0.31 21.68-1.87 34.13 0.47 0.5 39.54 1.75 96.71-0.3 157.6z" fill="currentColor"/>
</svg>
