<svg xmlns="http://www.w3.org/2000/svg" width="250" height="250" fill="none" viewBox="0 0 250 250">
<!-- SVG created with Arrow, by QuiverAI (https://quiver.ai) -->
  <path d="m242 68.97c0.06-8.56-4.04-13.88-17.53-13.79l-11.14 0.04c-30.96 0-48.3 1.04-74.69 0.82l-36.86-0.17c-4.74 0-7.75-10.23-11.32-16.11-3.65-6.01-7.25-6.56-15.3-6.56h-53.42c-9.77 0-13.41 7.14-13.41 14.17l-0.77 54.24 0.81 101.5c0 7.98 5.06 11.69 11.83 11.69 14.08 0.59 40.02 0.21 52.6 0.09 23.38-0.24 56.58-0.5 67.87-0.63 20.54-0.25 57.35 0.67 89.29 0.54 8.1 0 11.88-6.06 11.68-13.06-0.13-4.48-0.15-8.68 0.02-14.04 0.48-16.22 0.56-35.58 0.61-46.09 0.09-16.39-0.39-36.36-0.27-72.64zm-3.56 98.12-0.67 31.11c-0.08 3.71 0.83 13.31-8.81 13.31h-33.88c-15.49 0-33.73-0.55-55.15-0.34l-119.8 0.34c-5.54 0-8.63-3.84-8.63-8.56l-0.98-91.79 0.61-49.55 0.25-14.79c0.73-6.65 4.26-10.09 11.07-10.09h52.28c8.5 0 10.05 1.08 13.22 7.13 4.54 8.6 7.43 15.25 13.29 15.25h36.9c23.05 0 37.64-0.81 62.65-0.81h23.39c11.61 0 14.81 3.4 14.77 10.79l0.21 42.87-0.17 15.26-0.04 35.59-0.49 4.28z" fill="currentColor"/>
</svg>
