<svg xmlns="http://www.w3.org/2000/svg" width="24" height="24" viewBox="0 0 24 24" fill="none">
  <!-- Variant D: Architect — 折线 + 标签细节 -->
  <!-- 主轮廓 -->
  <path
    d="M 4.1 19 C 4 15.5 4.2 10.5 4 6.2 Q 4 5 5.2 5 L 9.1 5.1 L 10.7 8 C 13 8.1 16 7.9 19 8 Q 20 8 20 9 C 20.1 13 19.9 16 20 19 Q 20 20 19 20 C 14.5 20.1 9 19.9 5.1 20 Q 4 20 4.1 19 Z"
    stroke="#0A0A0A"
    stroke-width="1.5"
    stroke-linecap="round"
    stroke-linejoin="round"
  />
  <!-- 折线 -->
  <path
    d="M 4.2 10.5 C 8 10.4 15 10.6 19.8 10.5"
    stroke="#0A0A0A"
    stroke-width="1.2"
    stroke-linecap="round"
  />
  <!-- 标签上的标注线 -->
  <path
    d="M 5.5 6.2 C 6.2 6.1 7.5 6.3 8.2 6.2"
    stroke="#0A0A0A"
    stroke-width="1"
    stroke-linecap="round"
  />
  <path
    d="M 5.5 7.3 C 6 7.2 6.8 7.4 7.2 7.3"
    stroke="#0A0A0A"
    stroke-width="1"
    stroke-linecap="round"
  />
</svg>
