<svg xmlns="http://www.w3.org/2000/svg" width="200" height="215" fill="none" viewBox="0 0 200 215">
<!-- SVG created with Arrow, by QuiverAI (https://quiver.ai) -->
  <path d="m195 50.04c-0.75-4.83-4.1-6.61-8.19-6.61h-6.08l-0.35-13.47c-0.15-5.81-3.81-9.3-9.58-9.27l-76.01 0.18c-1.91 0-2.59-0.2-3.83-2.07l-5.33-8.09c-2.33-3.52-5-4.7-8.8-4.71h-47.82c-6.3 0-9.08 4.11-9.08 10.41l-0.38 27.02h-5.58c-6.33 0-9.31 3.78-8.92 10.56l13.42 91.29c1.17 8.01 5.24 9.83 11.46 9.73l142.5-0.01c5.77 0 7.56-3.11 8.43-8.8l14.86-91.25c0.37-2.4-0.3-3.76-0.72-4.91zm-172.9-33.63c0-4.96 1.9-8.29 7.06-8.29h47.63c3.5 0 5.41 1.39 7.14 4.17l5.51 8.17c1.47 2.41 2.76 2.53 5.33 2.53l75.99-0.18c4.67 0 7.43 2.66 7.5 7.2l0.35 13.42h-9.04v-8.59c0-2.18-1.17-2.96-2.82-2.96h-132.2c-2.48 0-3.47 1.27-3.47 3.86l0.24 7.69h-9.58l0.38-27.02zm145.5 17.81v9.21h-134.2l-0.18-8.63c0-0.83 0.43-0.85 0.9-0.85h132.8c0.47 0 0.63 0.06 0.63 0.27zm25.43 19.88-14.3 91.47c-0.83 5-2.14 7.34-6.93 7.34h-103.6v-0.06l-37.94-0.09c-5.78 0-8.11-0.98-9.12-7.38l-13.78-91.29c-0.62-4.48 0.94-8.57 6.47-8.57h172.9c4.48 0 7.21 2.89 6.35 8.58z" fill="currentColor"/>
</svg>
