<svg xmlns="http://www.w3.org/2000/svg" width="200" height="200" fill="none" viewBox="0 0 200 200">
<!-- SVG created with Arrow, by QuiverAI (https://quiver.ai) -->
  <path d="m26.94 32.36 3.3 28.62 1.12 0.57 129.7-15.05-2.36-30.29c-1.09-7.44-6.59-10.26-11.77-10.2l-110.9 13.21c-6.97 0.86-9.36 7.84-9.01 13.14z" fill="#4D7A64" stroke="#2B2B2A" stroke-miterlimit="10" stroke-width="2.4"/>
  <path d="m29.88 61.33 8.8 75.39 4.56 45.57c0.72 7.46 6.54 11.22 13.68 10.44l79.1-9.02c14.78-3.59 34.95-23.48 36.61-43.75l-10.92-73.06-0.67-20.62-131.2 15.05z" fill="#F6F0D1" stroke="#2B2B2A" stroke-miterlimit="10" stroke-width="2.4"/>
  <path d="m172.4 139.5c-1.69 6.61-5.26 8.9-15.93 10.35-8.34 0.57-12.16 4.92-11.07 13.64 1.93 8.53-0.67 15.94-8.57 19.86 11.93-3.26 30.69-20.09 35.57-43.85z" fill="#E2D7B4" stroke="#2B2B2A" stroke-miterlimit="10" stroke-width="2.8"/>
  <path d="m73.14 27.79c-0.22-1.76 2.58-2.6 5.18-2.66 3.04-0.07 5.37 1.8 5.12 4.48-0.32 3.38-4.24 6.56-7.32 7.68-0.23 2.5 0.59 6.72 0.4 8.61-0.19 1.55-1.73 1.68-2.3-0.04-1.04-3.2-1.25-12.24-1.94-17.34l0.86-0.73zm2.96 7.94c3.04-1.14 5.64-3.8 5.67-6.31 0.04-2.04-2.28-2.76-4-2.6-1.15 0.11-2.69 0.59-2.82 1.54-0.19 1.37 0.74 5.23 1.15 7.37z" fill="#F6F0D1"/>
  <path d="m88.18 26.12c0.23-1.21 1.83-1.47 2.66-1.81 0.82-0.34 1.55-0.99 3-0.99 3.35 0 4.31 1.85 4.24 4.41-0.06 2.66-2.31 5.11-4.92 7.13-0.35 0.28-0.22 0.44 0.1 0.67 2.45 1.72 5.45 3.04 8.12 4.11 1.36 0.57 0.95 2.15-0.62 2.1-1.55-0.07-7.25-3.46-9.43-4.49 0.19 2.51 0.54 5.02 0.57 6.47 0.07 1.59-2.53 1.99-2.79 0.3-0.44-2.8-1.06-12.3-0.93-17.9zm2.15 7.72c2.86-1.75 5.59-4.74 5.53-6.53-0.09-1.6-1.27-1.98-2.45-1.85-0.99 0.12-3.2 0.85-3.33 1.85-0.16 1.21-0.1 3.72 0.25 6.53z" fill="#F6F0D1"/>
  <path d="m103.2 22.81c0.13-0.66 1.4-0.89 2.65-0.95 6.36-0.35 13.41 2.86 13.69 8.85 0.32 6.01-5.5 10.42-9.81 12.01-1.96 0.73-2.99-0.71-1.99-1.93 0.32-0.38 0.28-0.67 0.16-1.27-1.06-5.05-2.78-12.04-4.32-15.9l-0.38-0.81zm3.54 1c0.9 3.35 2.57 10.87 2.7 15.09 0.03 0.59 0.35 0.56 0.85 0.3 3.63-1.82 7.05-5.14 6.95-8.78-0.19-4.51-6.1-6.58-9.83-6.9-0.5-0.07-0.82-0.2-0.67 0.29z" fill="#F6F0D1"/>
  <path d="m64.81 75.49c-3.72 0.13-8.59 0.79-12.72 1.72-1.21 0.29-1.94 0.54-1.88 2.5 0.1 3.19 1.1 9.04 1.73 11.22 0.47 1.69 1.07 1.85 2.76 1.69 3.17-0.31 7.45-0.88 10.68-1.29 2.54-0.34 2.54-2.07 2.38-5.21-0.13-2.31-0.72-6.11-1.07-8.4-0.25-1.38-0.63-2.27-1.88-2.23z" stroke="#2B2B2A" stroke-miterlimit="10" stroke-width="1.8"/>
</svg>
