<svg xmlns="http://www.w3.org/2000/svg" width="200" height="200" viewBox="0 0 200 200">
<!-- SVG created with Arrow, by QuiverAI (https://quiver.ai) -->
  <path d="m119.2 37.88c-4.63-3.63-11.13-5.47-18.84-5.47-9.86 0-14.41 5.67-23.82 8.05-4.42 1.16-9.79 0.9-13.22 0.77-2.18-0.77-7.48-0.06-11.1 0.91-11.11 1.72-16.41 9.97-22.1 19.32-5.23 8.12-10.6 11.49-16.35 18.72-5.95 7.56-8.55 14.84-8.1 21.81 0.59 8.37 5.02 16.75 12.14 24.02 6.21 5.7 19.13 7.58 24.43 7.2 1.44-0.14-0.52-0.78-1.96-0.78-10.1-0.78-15.4-3.48-19.69-7.77-5.63-5.63-9.92-14.26-10.38-22.8-0.26-5.48 3.69-13.17 10.88-21.06 5.27-5.54 7.29-5.61 12.85-14.4 5.44-8.57 9.37-16.13 19.4-19.78 6.85-2.76 10.84-0.81 17.62-1.06 8.08-0.33 14.04-7.55 24.2-10.92 5.1-1.88 11.18-0.9 15.02 0 6.21 1.59 10.56 4.42 13.49 7.47 1.3 1.3 0.84 0.3 0.26-0.45-1.17-1.5-3.42-2.88-4.73-3.78z" fill="#20201D" opacity=".7"/>
  <path d="m188.6 106.1c-1.5-4.29-0.39-8.84-1.36-13.59-1.39-7.16-7.13-12.83-11.49-12.08-1.11 0.19-1.63 1.03-0.13 1.16 3.91 0.32 7.47 6.31 7.99 9.88 0.72 5.06-0.59 10.66-0.13 15.17 1.24 10.41 4.54 16.99-4.78 25.38-7 5.93-13.88 3.49-23.07 6.19-4.52 1.37-9.43 1.62-13.96 3.67-2.86 1.24-5.57 2.08-4.73 1.89 8-1.95 11.71-3.48 18.49-3.94 7.38-0.51 15.59-1.15 22.29-4.13 6.02-2.7 13.95-9.34 12.98-18.11-0.39-4.28-0.98-7.65-2.1-11.49z" fill="#708B7A" opacity=".3"/>
  <path d="m171.4 67.71c-2.6-12.54-15.12-23.86-31.38-24.11-16.66-0.26-34.49 10.66-34.82 32.62-0.06 1.72 0.46 0.82 0.79-0.58 2.85-11.61 8.87-20.25 21.67-24.81 4.42-1.65 7.41-2.87 14.57-0.82 10.98 3.25 15.93 7.27 21.53 16.05 3.15 5 1.42 14.51-0.66 21.33-2.14 7.43 1.06 14.12 4.39 16.57 0.9 0.58 0.7-0.71 0.21-1.87-1.73-4.29-1.73-9.48 0.94-16.57 1.73-4.91 4.13-10.78 2.76-17.81z" fill="#20201D" opacity=".3"/>
  <path d="m138.9 44.75c-15.87 0-29.67 11.48-31.68 22.96-0.59 3.31 0.46 4.15 1.77 1.39 3.63-7.43 6.7-13.99 18.07-15.87 4.17-0.65 6.83 1.43 11.58 0.98 7.38-0.7 18.49 2.92 21.35 8.58 3.5 7.12 5.77 7.25 4.21 17.46-0.91 6.49-2.09 8.8-2.74 11.98-0.52 2.57-4.39 4.92-5.98 4.92-2.46 0-3.37-0.71-5.16-0.32-1.05 0.25-2.56 2.82-3.93 2.82-1.44 0-2.55-1.59-3.72-1.59-1.11 0-1.7 1.47-2.81 1.47-1.24 0-2.02-1.26-3.13-1.26-1.79 0-3.16 2.51-4.27 2.51-1.51 0-1.7-0.46-3.14 0.92-1.17 1.16 0.2 2.06-0.98 2.9-1.11 0.84-2.22 0.13-3.12 1.11-1.3 1.52 0 2.68-1.57 3.77-2.99 2.05-6.86 2.51-11.68 3.67-10.35 2.7-15.23 3.08-24.03 9.84-4.98 3.96-10.28 8.09-11.94 13.12-0.65 2.18 0-0.58 0.87-1.42 4.69-4.68 10.84-8.87 22.08-11.85 8.21-2.39 19.95-4.4 28.68-8.09 8.46-3.63 18.33-11.76 20.92-21.22 0.53-2.11-0.19-1.59-0.58-0.12-2.8 7.78-10.94 14.91-23.6 18.54-10.42 3.24-21.23 3.31-30.64 7.17-9.54 4.02-16.39 11.22-17.99 14.99-1.11 2.82-0.58 0.51-0.32-0.86 0.65-3.18-1.32-2.41-2.76-2.79-1.9-0.45-2.16-2.24-3.73-2.24-1.79 0-2.7 0.9-4.07 0.38-2.6-0.97-4.84 2.34-4.91 6.82-0.19 8.77 3.61 13.29 10.18 14.62 6.33 1.33 14.19-0.13 18.1-1.13 4.42-1.16 8.04-3.76 11.54-4.74 0.77 5.67 0.65 12.64 7.96 18.76 5.37 4.62 9.24 7.06 10.68 9.83 3.97 7.56 6.86 17.2 14.79 21.49 1.73 0.91 3.3-2.21 3.04-6.3-0.45-5.6-5.27-11.02-3.97-17.64 0.46-2.38 1.89-2.12 3.79-1.67 2.96 0.84 4.69 1.16 7.22 0.97 1.44-0.13 2.09-0.39 3.59-0.26 9.32 0.77 20.36-8.62 24.98-24.26 1.11-3.63 1.05-3.5-0.13-2.27-4.88 5.29-8.11 14.12-17 19.41-4.72 2.89-9.67 3.21-14.45 2.83-5.63-0.52-10.45-2.9-17.24-5.28-2.86-1.04-2.8 0.33-0.69 1.77 4.89 3.31 9.31 6.2 17.2 7.03-4.09 0.26-6.2-0.83-7.11-1.35-2.17-1.16-1.27 0.26-0.75 2.18 1.73 5.6 4.76 12.36 7.06 17.39 0.9 2.11-0.34 1.53-1.58-0.26-3.1-4.28-6.13-8.7-8.56-14.37-2.43-5.8-4.45-6.74-8.81-10.1-4.36-3.37-8.59-5.06-10.67-7.63-0.97-1.22 0.69-1.81 1.5-1.48 1.63 0.65 2.15 1.1 3.13 0.78 1.5-0.58 1.04-3.03 2.41-3.71 1.5-0.77 3.07-0.12 4.04-1.5 0.78-1.22-1.3-1.61-2.27-2.32-1.21-0.97-0.88-1.55 0.23-2 1.27-0.55 2.1 0.51 3.37 0 1.43-0.68 0.66-2.3 2.22-3.01 2.18-1.03 3.22 1.86 5.43 1.21 1.66-0.58 2.7 1.5 1.52 2.9-1.43 1.82 0.75 3.28 0.82 4.59 0.13 1.59-1.7 1.91-1.7 3.57 0 2.14 1.73 2.92 2.97 3.83 1.66 1.3 2.31 0.92 3.36-0.17 1.63-1.78 3-1.78 4.5-1.65 1.43 0.13 2.21-1.46 3.84-1.66 2.24-0.25 3.48 1.59 5.14 1.59 2.11 0 3.84-1.78 5.79-3.99 1.63-1.91 3.65-1.26 5.08-3.38 1.12-1.72 2.98-1.85 4.12-3.56 1.44-2.32 1.9-3.41 4.14-3.99 2.11-0.58 3.09-2.37 3.09-4.58 0-1.72 1.73-2.88 3.29-5.09 1.86-2.7 1.93-3.48 2.38-6.98 0.26-1.98 2.16-2.56 3.13-4.85 1.67-4.08 3.11-7.78 2.98-13.77-0.07-3.43-2.37-6-2.95-9.57-0.52-3.31 0.59-7.34-1.96-9.62-2.24-1.98-5.1-1.01-7.63-2.38-1.04-0.58-0.59-2.04 1.21-2.5 2.36-0.7 0.06-10.97-0.39-12.63-2.18-7.56-10.45-18.51-21.75-22-3.56-1.16-6.29-1.77-11.26-1.77z" fill="#DD9891" opacity=".3"/>
</svg>
