<svg xmlns="http://www.w3.org/2000/svg" width="1024" height="1024" viewBox="0 0 1024 1024">
  <!-- Black rounded square background -->
  <rect width="1024" height="1024" rx="225" ry="225" fill="#0A0A0A"/>

  <!-- Calligraphic A logo mark, white, centered and scaled -->
  <g transform="translate(200, 180) scale(2.44)" fill="#FFFFFF" stroke="#FFFFFF">
    <path d="m139.9 6.51-8.76 10.8 8.76 10.6 8.51-11.4-8.51-10z" stroke-miterlimit="10" stroke-width=".72"/>
    <path d="m139.7 15.06-0.51 2.26 1.15 0.71 0.18-1.87-0.82-1.1z" fill="#FFFFFF" stroke="none"/>
    <path d="m212.8 117c-10.76 11.05-29.79 17.93-47.05 22.7-4.88-25.71-7.01-69.24-10.73-87.51-2.08-9.65-3.93-9.81-5.26-8.81-3.35 2.62-10.94 7.12-12.69 11.22-3.08 5.8-33.65 62.51-52.2 102.5-11.12 2.37-23.31 5.85-29.55 9.96-7.18 3.59-13.47 15.95-12.08 16.91 1.51 1.04 4.51-2.82 18.6-7.18 5.47-1.8 11.01-3.28 15.6-4.53-10.15 21.56-19.02 37.63-26.63 53.67-8.87 18.93-9.91 22.86-6.05 23.19 2.34 0.21 11.45-4.89 14.21-7.61 3.19-3.14 5.46-8.82 7.15-13.32 8.17-19.42 15.87-36.36 23.47-55.18 0.42-0.78 0.85-1.58 1.26-2.4 16.6-3.96 37.14-9.01 58.1-17.79 3.96 28.38 11.96 63.45 21.95 80.16 4.04 6.03 8.39 2.54 12.31-0.42 5.13-3.72 8.74-8.56 8.48-10.9-0.34-1.51-2.35-1.6-3.86-3.47-8.71-11.04-16.83-42.86-20.65-71.69 15.61-6.55 32.81-15.47 42.2-25.66 2.76-3.05 3.99-4.84 3.42-3.84zm-114.3 37.37c11.21-25.16 26.65-59.51 41.48-90.4 3.06 5.2 4.72 49.43 7.37 80.12-14.82 4.21-31.95 6.64-48.85 10.28z" stroke="none"/>
  </g>
</svg>
